<svg xmlns="http://www.w3.org/2000/svg" xmlns:xlink="http://www.w3.org/1999/xlink" viewBox="0 0 100 125" version="1.1" x="0px" y="0px"><title>Home 2.7</title><desc>Created with Sketch.</desc><g stroke="none" stroke-width="1" fill="none" fill-rule="evenodd"><g fill="#000000"><path d="M56,37.9906311 C56,38.5480902 55.6774139,38.6774139 55.2881596,38.2881596 L51.4143185,34.4143185 C50.633212,33.633212 49.3620698,33.6379302 48.580561,34.419439 L37.419439,45.580561 C36.6355045,46.3644955 36,47.8982124 36,48.9907951 L36,65.0092049 C36,66.1086907 36.8998975,67 37.9912443,67 L62.0087557,67 C63.1084896,67 64,66.1017876 64,65.0092049 L64,48.9907951 C64,47.8913093 63.3671875,46.3671875 62.5892487,45.5892487 L62.7107565,45.7107565 C62.3182165,45.3182165 62,44.5443356 62,44.0046024 L62,36.999615 C62,35.8952581 61.1017394,35 60.0020869,35 L57.9979131,35 C56.8944962,35 56,35.8877296 56,37 L56,37.9906311 Z"/></g></g><text x="0" y="115" fill="#000000" font-size="5px" font-weight="bold" font-family="'Helvetica Neue', Helvetica, Arial-Unicode, Arial, Sans-serif">Created by Landan Lloyd</text><text x="0" y="120" fill="#000000" font-size="5px" font-weight="bold" font-family="'Helvetica Neue', Helvetica, Arial-Unicode, Arial, Sans-serif">from the Noun Project</text></svg>